name C:\Users\u0101727\Documents\MyRepositories\upper-imu-dc\Results\main_tracking\Case_71\kinematics.mot
datacolumns 10
datarows 37
range 1.37000000 1.73000000
endheader 
time	clav_prot	clav_elev	scapula_abduction	scapula_elevation	scapula_upward_rot	scapula_winging	plane_elv	shoulder_elv	axial_rot	
          1.37000000	        -20.96461956	         13.90951853	         -5.93414763	          5.79233887	         29.02931393	         -0.90761494	          7.11520530	          5.23464925	         26.80422192	
          1.38000000	        -21.10130269	         14.18664817	         -6.07108344	          5.91349259	         29.37175729	         -0.97898434	          8.26851485	          4.99246793	         26.03557727	
          1.39000000	        -21.23376959	         14.44831395	         -6.20780027	          6.02811073	         29.69427511	         -1.04562929	          9.42627582	          4.76684826	         25.24674979	
          1.40000000	        -21.36133681	         14.69403902	         -6.34305467	          6.13592370	         29.99644481	         -1.10762438	         10.57969739	          4.55805532	         24.44579720	
          1.41000000	        -21.48365308	         14.92326431	         -6.47607578	          6.23655986	         30.27795749	         -1.16508401	         11.71982447	          4.36620889	         23.64114167	
          1.42000000	        -21.60029000	         15.13570641	         -6.60603196	          6.32984048	         30.53858883	         -1.21809138	         12.83772915	          4.19128013	         22.84127176	
          1.43000000	        -21.71095484	         15.33114216	         -6.73229396	          6.41560461	         30.77821651	         -1.26674079	         13.92476392	          4.03313691	         22.05435441	
          1.44000000	        -21.81545308	         15.50949872	         -6.85438841	          6.49376972	         30.99685860	         -1.31113553	         14.97284135	          3.89153563	         21.28785288	
          1.45000000	        -21.91366470	         15.67086594	         -6.97195641	          6.56434070	         31.19468177	         -1.35138754	         15.97468800	          3.76615159	         20.54820922	
          1.46000000	        -22.00553184	         15.81548722	         -7.08472554	          6.62740381	         31.37200293	         -1.38761892	         16.92404575	          3.65660515	         19.84064863	
          1.47000000	        -22.09104148	         15.94378502	         -7.19247348	          6.68314139	         31.52931400	         -1.41996470	         17.81581022	          3.56244439	         19.16911262	
          1.48000000	        -22.17021374	         16.05634194	         -7.29500535	          6.73182118	         31.66727041	         -1.44857199	         18.64609121	          3.48315592	         18.53630184	
          1.49000000	        -22.24308897	         16.15388466	         -7.39212339	          6.77378620	         31.78668715	         -1.47360153	         19.41222126	          3.41815807	         17.94377870	
          1.50000000	        -22.30971883	         16.23726319	         -7.48360798	          6.80944237	         31.88852648	         -1.49522799	         20.11272340	          3.36679799	         17.39209207	
          1.51000000	        -22.37016529	         16.30742615	         -7.56921666	          6.83924428	         31.97387871	         -1.51363961	         20.74725043	          3.32835291	         16.88090480	
          1.52000000	        -22.42450342	         16.36539728	         -7.64869330	          6.86368191	         32.04394008	         -1.52903733	         21.31650745	          3.30203059	         16.40911717	
          1.53000000	        -22.47282826	         16.41225013	         -7.72178773	          6.88326679	         32.09998607	         -1.54163323	         21.82216601	          3.28697142	         15.97498450	
          1.54000000	        -22.51526328	         16.44908358	         -7.78828131	          6.89851906	         32.14334165	         -1.55164811	         22.26677521	          3.28225125	         15.57622960	
          1.55000000	        -22.55196882	         16.47699929	         -7.84801531	          6.90995654	         32.17534958	         -1.55930795	         22.65367117	          3.28688504	         15.21015273	
          1.56000000	        -22.58314782	         16.49708193	         -7.90091750	          6.91808623	         32.19733682	         -1.56483900	         22.98688124	          3.29983348	         14.87374394	
          1.57000000	        -22.60904637	         16.51038251	         -7.94702162	          6.92339879	         32.21058028	         -1.56846113	         23.27101752	          3.32001385	         14.56380012	
          1.58000000	        -22.62994888	         16.51790511	         -7.98647637	          6.92636530	         32.21627515	         -1.57038084	         23.51115293	          3.34631413	         14.27704644	
          1.59000000	        -22.64616751	         16.52059605	         -8.01954122	          6.92743540	         32.21550795	         -1.57078435	         23.71267315	          3.37761024	         14.01025916	
          1.60000000	        -22.65802689	         16.51933445	         -8.04656942	          6.92703554	         32.20923519	         -1.56983161	         23.88109992	          3.41278678	         13.76038599	
          1.61000000	        -22.66584546	         16.51492309	         -8.06797964	          6.92556673	         32.19826787	         -1.56765160	         24.02188583	          3.45075983	         13.52465989	
          1.62000000	        -22.66991699	         16.50807824	         -8.08422239	          6.92340019	         32.18326191	         -1.56433956	         24.14018730	          3.49050000	         13.30070307	
          1.63000000	        -22.67049453	         16.49941910	         -8.09574588	          6.92087155	         32.16471427	         -1.55995621	         24.24063017	          3.53105267	         13.08661793	
          1.64000000	        -22.66777860	         16.48945825	         -8.10296614	          6.91827430	         32.14296422	         -1.55452875	         24.32708808	          3.57155333	         12.88106164	
          1.65000000	        -22.66191165	         16.47859373	         -8.10624596	          6.91585323	         32.11819955	         -1.54805362	         24.40249501	          3.61123609	         12.68330005	
          1.66000000	        -22.65297997	         16.46710314	         -8.10588531	          6.91379774	         32.09046714	         -1.54050097	         24.46871014	          3.64943541	         12.49323669	
          1.67000000	        -22.64102296	         16.45513889	         -8.10212414	          6.91223508	         32.05968647	         -1.53182039	         24.52644540	          3.68558251	         12.31141510	
          1.68000000	        -22.62604891	         16.44272388	         -8.09515630	          6.91122297	         32.02566469	         -1.52194766	         24.57525791	          3.71919909	         12.13899619	
          1.69000000	        -22.60805508	         16.42974708	         -8.08515170	          6.91074208	         31.98811144	         -1.51081180	         24.61360234	          3.74989106	         11.97771430	
          1.70000000	        -22.58704881	         16.41595950	         -8.07228234	          6.91068895	         31.94665199	         -1.49834155	         24.63893183	          3.77734466	         11.82981876	
          1.71000000	        -22.56306610	         16.40097099	         -8.05674696	          6.91087053	         31.90083682	         -1.48447023	         24.64783105	          3.80132695	         11.69801071	
          1.72000000	        -22.53618370	         16.38424841	         -8.03878895	          6.91100114	         31.85014608	         -1.46913822	         24.63616399	          3.82169177	         11.58538455	
          1.73000000	        -22.50652291	         16.36511505	         -8.01870446	          6.91070226	         31.79398810	         -1.45229244	         24.59922464	          3.83839154	         11.49537905	
